<?xml version="1.0" standalone="no"?>
<!DOCTYPE svg PUBLIC "-//W3C//DTD SVG 20010904//EN"
 "http://www.w3.org/TR/2001/REC-SVG-20010904/DTD/svg10.dtd">
<svg version="1.0" xmlns="http://www.w3.org/2000/svg"
 width="600.000000pt" height="600.000000pt" viewBox="0 0 600.000000 600.000000"
 preserveAspectRatio="xMidYMid meet">
<g transform="translate(0.000000,600.000000) scale(0.100000,-0.100000)"
fill="#000000" stroke="none">
<path d="M2370 3666 c7 -7 13 -7 20 0 6 6 3 10 -10 10 -13 0 -16 -4 -10 -10z"/>
<path d="M2398 3636 c3 -5 -1 -7 -10 -4 -8 4 -21 2 -29 -4 -11 -8 -10 -9 4 -4
9 3 17 1 17 -4 0 -9 -23 -15 -44 -11 -5 1 -3 -6 5 -15 12 -16 12 -17 -2 -12
-9 4 -16 1 -16 -7 0 -17 -43 -85 -54 -85 -4 0 -5 -8 -2 -17 5 -12 2 -15 -10
-10 -11 4 -14 2 -11 -7 3 -8 1 -17 -5 -21 -20 -12 -12 -55 12 -63 12 -5 93 -8
179 -7 86 0 154 -3 152 -7 -3 -4 7 -3 21 2 15 6 31 8 36 5 10 -7 -48 -105 -67
-112 -7 -2 -11 -10 -8 -18 3 -7 -2 -15 -10 -18 -9 -4 -16 -12 -16 -19 -1 -7
-12 -26 -26 -43 -15 -16 -23 -24 -19 -16 5 9 4 12 -3 7 -6 -4 -9 -12 -6 -19 2
-7 -3 -21 -12 -32 -8 -11 -13 -14 -9 -7 3 6 4 12 1 12 -4 0 -13 -18 -22 -39
-12 -30 -20 -38 -32 -33 -15 5 -16 4 -2 -13 9 -11 10 -16 3 -11 -8 4 -13 1
-13 -8 0 -9 -11 -26 -25 -38 -14 -12 -23 -28 -21 -35 3 -8 -1 -10 -11 -6 -12
5 -15 2 -11 -8 4 -9 -2 -20 -13 -27 -10 -7 -19 -17 -19 -22 0 -6 -18 -36 -39
-68 -22 -31 -45 -69 -52 -84 -6 -15 -16 -25 -20 -22 -5 3 -9 -2 -9 -11 0 -10
-5 -13 -12 -9 -7 4 -8 3 -4 -4 4 -6 -2 -17 -14 -24 -21 -14 -28 -33 -7 -23 6
4 3 -1 -7 -9 -11 -9 -16 -16 -10 -17 5 0 -1 -4 -14 -10 -13 -5 -21 -13 -17
-19 3 -5 -6 -22 -20 -37 -14 -16 -34 -45 -44 -65 -10 -21 -22 -34 -26 -30 -5
4 -5 2 -1 -5 3 -6 0 -15 -8 -20 -8 -4 -15 -12 -15 -18 0 -5 -4 -11 -10 -13 -6
-2 -9 2 -8 10 2 7 2 10 0 5 -3 -4 -10 -4 -16 0 -7 4 -6 -1 2 -10 11 -14 11
-20 1 -32 -7 -8 -16 -12 -21 -10 -4 3 -5 -5 -2 -17 3 -13 6 -35 6 -50 1 -14 6
-24 10 -21 5 3 6 11 3 19 -3 8 0 11 9 7 8 -3 13 -8 11 -12 -3 -5 159 0 262 8
7 1 11 5 8 10 -4 5 -3 11 1 13 12 5 68 81 76 101 4 11 12 15 18 11 8 -4 9 -3
5 4 -4 7 -3 12 2 12 6 0 13 7 16 16 4 10 2 13 -7 9 -6 -4 -4 0 6 8 10 9 18 18
17 21 0 4 14 25 32 47 18 23 33 46 33 53 1 6 6 10 13 9 7 -2 12 3 12 10 0 16
49 73 61 70 4 -2 5 5 2 14 -4 11 -3 14 6 9 7 -5 75 -7 151 -7 182 2 190 0 190
-53 0 -65 20 -76 139 -76 136 0 133 -4 132 189 -2 149 -1 151 21 155 33 7 127
3 123 -4 -2 -4 2 -7 10 -7 8 0 12 4 9 9 -3 4 2 5 10 2 21 -8 68 -83 60 -96 -4
-7 -3 -8 4 -4 7 4 12 3 12 -3 0 -6 14 -26 31 -46 17 -19 27 -35 23 -35 -5 0
-4 -4 2 -8 5 -4 27 -29 47 -56 25 -34 36 -56 33 -73 -3 -14 -1 -21 6 -17 6 4
8 -2 4 -17 -6 -21 -5 -22 4 -6 9 14 8 22 -2 35 -12 15 -11 16 5 3 9 -7 17 -22
17 -33 0 -10 8 -22 18 -25 9 -4 20 -11 24 -16 9 -14 239 -17 257 -3 12 9 13 8
6 -4 -8 -13 -7 -13 8 -1 12 9 17 10 17 2 0 -7 5 -9 11 -5 6 3 7 9 3 13 -5 3
-9 15 -9 26 1 11 -2 22 -5 25 -19 15 -58 85 -53 93 3 6 2 8 -3 5 -15 -9 -33
17 -23 33 15 23 10 34 -6 13 -12 -16 -14 -16 -15 -3 0 9 -9 24 -21 35 -13 12
-18 25 -15 40 6 24 -8 41 -19 24 -4 -6 -20 9 -37 36 -16 26 -36 53 -44 61 -8
8 -14 21 -14 29 0 8 -4 13 -9 10 -5 -4 -7 3 -4 14 3 11 9 17 14 14 5 -3 9 0 9
5 0 6 7 11 17 11 9 0 14 3 10 6 -7 8 64 70 76 66 4 -1 6 1 4 5 -3 5 5 33 19
63 13 30 23 63 24 73 0 10 3 16 8 14 4 -3 4 38 1 91 -4 57 -11 98 -18 100 -6
2 -11 7 -11 12 0 5 -5 21 -12 37 -6 15 -10 32 -9 36 1 5 -3 6 -9 2 -14 -9 -13
8 3 25 10 12 9 12 -5 1 -16 -12 -22 -9 -19 11 0 5 -2 7 -7 6 -13 -4 -62 49
-59 63 2 8 2 11 0 7 -7 -12 -33 -9 -33 4 0 6 -3 8 -7 5 -3 -4 -17 0 -30 8 -13
9 -23 13 -23 10 0 -3 -10 0 -22 7 -28 16 -1160 29 -1150 14z m1201 -66 c222
-120 245 -423 44 -576 -23 -18 -48 -34 -54 -36 -12 -4 258 -409 281 -423 30
-18 -2 -25 -119 -25 l-130 0 -128 186 c-70 102 -135 194 -143 205 -13 16 -30
19 -125 20 l-110 2 0 -172 0 -171 -107 0 -108 0 0 65 0 65 -202 0 -203 -1
-143 -209 -143 -210 -130 0 c-72 0 -129 3 -127 8 2 4 20 30 41 57 40 52 93
128 345 496 85 123 172 251 195 284 108 155 165 241 166 249 0 4 -102 7 -229
7 l-230 -2 77 111 76 111 571 -3 571 -3 64 -35z m142 -803 c-10 -9 -11 -8 -5
6 3 10 9 15 12 12 3 -3 0 -11 -7 -18z"/>
<path d="M3114 3391 c-2 -2 -4 -60 -4 -128 l0 -124 196 3 196 3 28 32 c52 58
49 132 -7 185 -24 22 -32 23 -215 28 -104 3 -192 3 -194 1z m359 -33 c-2 -5 3
-8 11 -8 23 0 53 -51 53 -93 1 -31 -5 -42 -31 -62 -33 -25 -52 -32 -42 -16 3
5 -1 11 -9 15 -8 3 -14 0 -12 -7 3 -17 -83 -26 -199 -20 l-102 6 -1 93 c-2 81
0 93 16 96 36 6 321 3 316 -4z"/>
<path d="M2880 3272 c0 -5 -52 -84 -115 -175 -63 -92 -115 -170 -115 -172 0
-3 56 -5 125 -5 l125 0 0 180 c0 113 -4 180 -10 180 -5 0 -10 -4 -10 -8z m-14
-109 c1 -10 2 -22 4 -28 1 -5 2 -49 1 -97 l-1 -88 -33 0 c-18 0 -39 6 -46 13
-11 10 -13 10 -7 0 11 -19 -49 -17 -64 2 -9 10 -9 15 -1 15 6 0 11 6 11 13 0
20 33 55 47 50 6 -2 15 1 19 8 5 8 3 9 -6 4 -20 -12 -2 37 21 57 10 9 19 21
19 27 0 6 5 11 10 11 6 0 10 7 10 15 0 21 16 19 16 -2z"/>
<path d="M2745 3010 c-3 -5 -1 -10 4 -10 6 0 11 5 11 10 0 6 -2 10 -4 10 -3 0
-8 -4 -11 -10z"/>
<path d="M3506 2763 c-6 -14 -5 -15 5 -6 7 7 10 15 7 18 -3 3 -9 -2 -12 -12z"/>
<path d="M3720 2680 c0 -5 5 -10 11 -10 5 0 7 5 4 10 -3 6 -8 10 -11 10 -2 0
-4 -4 -4 -10z"/>
<path d="M3576 2628 c3 -5 10 -6 15 -3 13 9 11 12 -6 12 -8 0 -12 -4 -9 -9z"/>
<path d="M2431 3094 c0 -11 3 -14 6 -6 3 7 2 16 -1 19 -3 4 -6 -2 -5 -13z"/>
<path d="M2180 2710 c0 -5 5 -10 11 -10 5 0 7 5 4 10 -3 6 -8 10 -11 10 -2 0
-4 -4 -4 -10z"/>
<path d="M2295 2339 c-4 -6 -5 -12 -2 -15 2 -3 7 2 10 11 7 17 1 20 -8 4z"/>
</g>
</svg>
